<svg width="40" height="40" viewBox="0 0 40 40" fill="none" xmlns="http://www.w3.org/2000/svg">
<path fill-rule="evenodd" clip-rule="evenodd" d="M20 40C31.0457 40 40 31.0457 40 20C40 8.9543 31.0457 0 20 0C8.9543 0 0 8.9543 0 20C0 31.0457 8.9543 40 20 40Z" fill="#FF7600"/>
<path d="M21.8114 19.9989L28.62 13.2023C29.1237 12.6985 29.1237 11.8817 28.62 11.3779C28.1163 10.874 27.2995 10.874 26.7958 11.3779L20 18.1873L13.2042 11.3779C12.7005 10.874 11.8837 10.874 11.38 11.3779C10.8763 11.8817 10.8763 12.6985 11.38 13.2023L18.1886 19.9989L11.38 26.7955C11.1368 27.0368 11 27.3652 11 27.7077C11 28.0503 11.1368 28.3787 11.38 28.62C11.6212 28.8632 11.9496 29 12.2921 29C12.6346 29 12.963 28.8632 13.2042 28.62L20 21.8105L26.7958 28.62C27.037 28.8632 27.3654 29 27.7079 29C28.0504 29 28.3788 28.8632 28.62 28.62C28.8632 28.3787 29 28.0503 29 27.7077C29 27.3652 28.8632 27.0368 28.62 26.7955L21.8114 19.9989Z" fill="white"/>
</svg>
